<?xml version="1.0" encoding="utf-8"?>
<!-- Generator: Adobe Illustrator 28.2.0, SVG Export Plug-In . SVG Version: 6.00 Build 0)  -->
<svg version="1.1" xmlns="http://www.w3.org/2000/svg" xmlns:xlink="http://www.w3.org/1999/xlink" x="0px" y="0px"
	 viewBox="0 0 73.89 70.2" style="enable-background:new 0 0 73.89 70.2;" xml:space="preserve">
<style type="text/css">
	.st0{fill:#F9FBFC;}
	.st1{opacity:0.05;}
	.st2{clip-path:url(#SVGID_00000182497418751438811910000016329372631840666558_);}
	.st3{clip-path:url(#SVGID_00000085934306254972877830000005251424955882643105_);}
	.st4{clip-path:url(#SVGID_00000018205372744374275120000016179676833969940131_);}
	.st5{clip-path:url(#XMLID_00000085245856998108419270000010219352524536810629_);}
	.st6{clip-path:url(#XMLID_00000119811008590481151230000013032997559893052602_);}
	.st7{clip-path:url(#XMLID_00000017481412425375873610000008106060981449128107_);}
	.st8{clip-path:url(#XMLID_00000140007845269975731550000011538187327300115612_);fill:#0C6FA6;}
	.st9{opacity:0.1;fill:#0C6FA6;}
	.st10{fill:url(#SVGID_00000125591402219851352780000006724688329078363831_);}
	.st11{fill:none;stroke:#ED6B1C;stroke-width:10;stroke-miterlimit:10;}
	.st12{fill:#F9FBFC;stroke:#ED6B1C;stroke-width:7.6359;stroke-miterlimit:10;}
	.st13{fill:#F2F2F2;}
	.st14{fill:none;stroke:#016BA4;stroke-miterlimit:10;}
	.st15{clip-path:url(#SVGID_00000129164985960148957210000009754448193481840532_);}
	.st16{fill:#6D7373;}
	.st17{fill:#FFFFFF;}
	.st18{fill:#016BA4;}
	.st19{fill:#012D49;}
	.st20{fill:url(#SVGID_00000002380807804127292570000006267116263509036969_);}
	.st21{fill:none;stroke:#012D49;stroke-width:7.3895;stroke-linecap:round;stroke-linejoin:round;stroke-miterlimit:133.3333;}
	.st22{fill:none;stroke:#012D49;stroke-width:7.0687;stroke-linecap:round;stroke-linejoin:round;stroke-miterlimit:133.3333;}
	.st23{fill:none;stroke:#012D49;stroke-width:8.5559;stroke-linejoin:round;stroke-miterlimit:133.3333;}
	.st24{fill:none;stroke:#012D49;stroke-width:8.5559;stroke-miterlimit:133.3333;}
	.st25{fill:none;stroke:#012D49;stroke-width:7.2082;stroke-linejoin:round;stroke-miterlimit:133.3333;}
	.st26{fill:none;stroke:#012D49;stroke-width:7.2082;stroke-miterlimit:133.3333;}
</style>
<g id="fONDO">
</g>
<g id="Capa_1">
	<g>
		<path class="st25" d="M18.93,38.7c0-6.8,0-10.19,2.11-12.31c2.11-2.11,5.51-2.11,12.31-2.11h10.81h10.81c6.8,0,10.19,0,12.31,2.11
			c2.11,2.11,2.11,5.51,2.11,12.31v3.6v3.6c0,6.8,0,10.19-2.11,12.31c-2.11,2.11-5.51,2.11-12.31,2.11H44.16H33.34
			c-6.8,0-10.19,0-12.31-2.11c-2.11-2.11-2.11-5.51-2.11-12.31v-3.6V38.7z"/>
		<path class="st25" d="M18.93,45.91L18.93,45.91c-6.8,0-10.19,0-12.31-2.11l0,0c-2.11-2.11-2.11-5.51-2.11-12.31v-7.21
			c0-6.8,0-10.19,2.11-12.31c2.11-2.11,5.51-2.11,12.31-2.11h21.62c6.8,0,10.19,0,12.31,2.11c2.11,2.11,2.11,5.51,2.11,12.31l0,0"/>
		<path class="st26" d="M51.36,42.31c0,3.98-3.23,7.21-7.21,7.21s-7.21-3.23-7.21-7.21s3.23-7.21,7.21-7.21S51.36,38.33,51.36,42.31
			z"/>
	</g>
</g>
</svg>
